<svg width="146" height="31" viewBox="0 0 146 31" fill="none" xmlns="http://www.w3.org/2000/svg">
<path d="M53.8849 13.3622H51.2287C51.1529 12.9266 51.0133 12.5407 50.8097 12.2045C50.6061 11.8636 50.3527 11.5748 50.0497 11.3381C49.7467 11.1013 49.401 10.9238 49.0128 10.8054C48.6293 10.6823 48.215 10.6207 47.7699 10.6207C46.9792 10.6207 46.2784 10.8196 45.6676 11.2173C45.0568 11.6103 44.5786 12.188 44.233 12.9503C43.8873 13.7079 43.7145 14.6335 43.7145 15.7273C43.7145 16.84 43.8873 17.7775 44.233 18.5398C44.5833 19.2973 45.0616 19.8703 45.6676 20.2585C46.2784 20.642 46.9768 20.8338 47.7628 20.8338C48.1984 20.8338 48.6056 20.777 48.9844 20.6634C49.3679 20.545 49.7112 20.3722 50.0142 20.1449C50.322 19.9176 50.58 19.6383 50.7884 19.3068C51.0014 18.9754 51.1482 18.5966 51.2287 18.1705L53.8849 18.1847C53.7855 18.8759 53.5701 19.5246 53.2386 20.1307C52.9119 20.7367 52.4834 21.2718 51.9531 21.7358C51.4228 22.1951 50.8026 22.5549 50.0923 22.8153C49.3821 23.071 48.5938 23.1989 47.7273 23.1989C46.4489 23.1989 45.3078 22.9029 44.304 22.3111C43.3002 21.7192 42.5095 20.8646 41.9318 19.7472C41.3542 18.6297 41.0653 17.2898 41.0653 15.7273C41.0653 14.16 41.3565 12.8201 41.9389 11.7074C42.5213 10.59 43.3144 9.73532 44.3182 9.14347C45.322 8.55161 46.4583 8.25568 47.7273 8.25568C48.5369 8.25568 49.2898 8.36932 49.9858 8.59659C50.6818 8.82386 51.3021 9.15767 51.8466 9.59801C52.3911 10.0336 52.8385 10.5687 53.1889 11.2031C53.544 11.8329 53.776 12.5526 53.8849 13.3622ZM56.1843 23V12.0909H65.396V23H62.9173V14.2003H58.6417V23H56.1843ZM72.8693 23.2131C71.7756 23.2131 70.831 22.9858 70.0355 22.5312C69.2448 22.072 68.6364 21.4233 68.2102 20.5852C67.7841 19.7424 67.571 18.7505 67.571 17.6094C67.571 16.4872 67.7841 15.5024 68.2102 14.6548C68.6411 13.8026 69.2424 13.1397 70.0142 12.6662C70.786 12.188 71.6927 11.9489 72.7344 11.9489C73.4067 11.9489 74.0412 12.0578 74.6378 12.2756C75.2391 12.4886 75.7694 12.8201 76.2287 13.2699C76.6927 13.7197 77.0573 14.2926 77.3224 14.9886C77.5876 15.6799 77.7202 16.5038 77.7202 17.4602V18.2486H68.7784V16.5156H75.2557C75.2509 16.0232 75.1444 15.5852 74.9361 15.2017C74.7277 14.8134 74.4366 14.508 74.0625 14.2855C73.6932 14.063 73.2623 13.9517 72.7699 13.9517C72.2443 13.9517 71.7827 14.0795 71.3849 14.3352C70.9872 14.5862 70.6771 14.9176 70.4545 15.3295C70.2367 15.7367 70.1255 16.1842 70.1207 16.6719V18.1847C70.1207 18.8191 70.2367 19.3636 70.4688 19.8182C70.7008 20.268 71.0251 20.6136 71.4418 20.8551C71.8584 21.0919 72.3461 21.2102 72.9048 21.2102C73.2789 21.2102 73.6174 21.1581 73.9205 21.054C74.2235 20.9451 74.4863 20.7865 74.7088 20.5781C74.9313 20.3698 75.0994 20.1117 75.2131 19.804L77.6136 20.0739C77.4621 20.7083 77.1733 21.2623 76.7472 21.7358C76.3258 22.2045 75.786 22.5691 75.1278 22.8295C74.4697 23.0852 73.7169 23.2131 72.8693 23.2131ZM79.8952 23V12.0909H82.4663V16.4943H83.4038L86.685 12.0909H89.7816L85.7404 17.446L89.8242 23H86.7134L83.7234 18.8878H82.4663V23H79.8952ZM90.6854 14.2003V12.0909H100.231V14.2003H96.701V23H94.2152V14.2003H90.6854ZM102.278 27.0909V12.0909H104.806V13.8949H104.956C105.088 13.6297 105.275 13.348 105.517 13.0497C105.758 12.7467 106.085 12.4886 106.497 12.2756C106.909 12.0578 107.434 11.9489 108.074 11.9489C108.916 11.9489 109.676 12.1643 110.353 12.5952C111.035 13.0213 111.575 13.6534 111.973 14.4915C112.375 15.3248 112.576 16.3475 112.576 17.5597C112.576 18.7576 112.38 19.7756 111.987 20.6136C111.594 21.4517 111.059 22.0909 110.382 22.5312C109.705 22.9716 108.938 23.1918 108.081 23.1918C107.456 23.1918 106.937 23.0876 106.525 22.8793C106.113 22.6709 105.782 22.42 105.531 22.1264C105.285 21.8281 105.093 21.5464 104.956 21.2812H104.849V27.0909H102.278ZM104.799 17.5455C104.799 18.2509 104.899 18.8688 105.098 19.3991C105.301 19.9295 105.592 20.3437 105.971 20.642C106.355 20.9356 106.819 21.0824 107.363 21.0824C107.931 21.0824 108.407 20.9309 108.791 20.6278C109.174 20.3201 109.463 19.901 109.657 19.3707C109.856 18.8357 109.956 18.2273 109.956 17.5455C109.956 16.8684 109.859 16.267 109.664 15.7415C109.47 15.2159 109.181 14.804 108.798 14.5057C108.414 14.2074 107.936 14.0582 107.363 14.0582C106.814 14.0582 106.348 14.2027 105.964 14.4915C105.581 14.7803 105.289 15.1851 105.091 15.706C104.896 16.2268 104.799 16.84 104.799 17.5455ZM116.005 27.0909C115.655 27.0909 115.33 27.0625 115.032 27.0057C114.738 26.9536 114.504 26.892 114.329 26.821L114.925 24.8182C115.299 24.9271 115.633 24.9792 115.927 24.9744C116.22 24.9697 116.478 24.8774 116.701 24.6974C116.928 24.5223 117.12 24.2287 117.276 23.8168L117.496 23.2273L113.54 12.0909H116.268L118.782 20.3295H118.896L121.417 12.0909H124.151L119.783 24.321C119.58 24.8987 119.31 25.3935 118.974 25.8054C118.638 26.2221 118.226 26.5393 117.738 26.7571C117.255 26.9796 116.677 27.0909 116.005 27.0909ZM132.209 20.0099L135.447 12.0909H137.521L133.111 23H131.314L127.003 12.0909H129.055L132.209 20.0099ZM128.409 12.0909V23H125.93V12.0909H128.409ZM136.115 23V12.0909H138.572V23H136.115Z" fill="#373737"/>
<circle cx="4.5" cy="26.5" r="4.5" fill="#5F1FEC"/>
<circle cx="14.5" cy="26.5" r="4.5" fill="#5F1FEC"/>
<circle cx="13.5" cy="15.5" r="4.5" fill="#98FF7A"/>
<circle cx="24.5" cy="26.5" r="4.5" fill="#5F1FEC"/>
<circle cx="24.5" cy="15.5" r="4.5" fill="#98FF7A"/>
<circle cx="24.5" cy="4.5" r="4.5" fill="#98FF7A"/>
</svg>
